<svg xmlns="http://www.w3.org/2000/svg" width="34.556" height="27" viewBox="0 0 34.556 27">
  <path id="Icon_awesome-exchange-alt" data-name="Icon awesome-exchange-alt" d="M0,11.5v-1.08A1.62,1.62,0,0,1,1.62,8.8h24.3V5.557a1.621,1.621,0,0,1,2.765-1.145l5.4,5.4a1.62,1.62,0,0,1,0,2.291l-5.4,5.4a1.621,1.621,0,0,1-2.765-1.145v-3.24H1.62A1.62,1.62,0,0,1,0,11.5ZM32.936,21.755H8.639v-3.24A1.621,1.621,0,0,0,5.874,17.37l-5.4,5.4a1.62,1.62,0,0,0,0,2.291l5.4,5.4a1.621,1.621,0,0,0,2.765-1.145v-3.24h24.3a1.62,1.62,0,0,0,1.62-1.62v-1.08A1.62,1.62,0,0,0,32.936,21.755Z" transform="translate(0 -3.936)" fill="#33d5e7"/>
</svg>
