<svg xmlns="http://www.w3.org/2000/svg" xmlns:xlink="http://www.w3.org/1999/xlink" width="20" height="20" viewBox="0 0 20 20">
  <defs>
    <clipPath id="clip-Artboard_3">
      <rect width="20" height="20"/>
    </clipPath>
  </defs>
  <g id="Artboard_3" data-name="Artboard – 3" clip-path="url(#clip-Artboard_3)">
    <path id="Icon_metro-language" data-name="Icon metro-language" d="M11.339,13.032q-.01.03-.126-.005t-.316-.116l-.2-.09a6.018,6.018,0,0,1-.874-.492q-.07-.05-.412-.316t-.382-.286a17.112,17.112,0,0,1-1.346,1.818,7.467,7.467,0,0,1-1.055,1.1.8.8,0,0,1-.2.04.387.387,0,0,1-.186,0q.06-.04.824-.924.211-.241.859-1.155a14.043,14.043,0,0,0,.789-1.185q.171-.3.512-.989a7.83,7.83,0,0,0,.362-.778,8.254,8.254,0,0,0-1.1.331q-.08.02-.276.075l-.347.1a1.721,1.721,0,0,0-.171.05.171.171,0,0,0-.02.105.223.223,0,0,1-.01.1q-.05.1-.311.151a.81.81,0,0,1-.472,0A.424.424,0,0,1,6.6,10.35a.511.511,0,0,1-.05-.231,1.941,1.941,0,0,1,.246-.05,3,3,0,0,0,.3-.06q.583-.161,1.055-.321,1-.352,1.025-.352a2.228,2.228,0,0,0,.432-.2,4.543,4.543,0,0,1,.442-.216q.09-.03.216-.08t.146-.055a.135.135,0,0,1,.06.005,1.143,1.143,0,0,1-.01.331,2.139,2.139,0,0,1-.126.271q-.126.251-.266.537t-.171.336a15.065,15.065,0,0,1-.773,1.316l.643.281q.121.06.748.321l.678.281q.04.01.105.256a.761.761,0,0,1,.045.306ZM9.28,8.15a.407.407,0,0,1-.04.281.911.911,0,0,1-.5.382,1.612,1.612,0,0,1-.6.121.831.831,0,0,1-.492-.261.755.755,0,0,1-.181-.412l.01-.03a.43.43,0,0,0,.2.05.874.874,0,0,0,.266,0q.1-.02.583-.161a2.868,2.868,0,0,1,.552-.141.2.2,0,0,1,.211.171Zm7.011,1.3.633,2.28-1.4-.422ZM5.162,17.481l6.971-2.33V4.785L5.162,7.125V17.481ZM17.627,14.3l1.025.311-1.818-6.6-1-.311-2.17,5.384,1.025.311.452-1.1,2.119.653ZM12.575,4.634,18.33,6.483V2.666ZM15.7,17.923l1.587.131-.542,1.607-.4-.663a7.446,7.446,0,0,1-2.772,1.085,4.814,4.814,0,0,1-.914.121h-.844a6.789,6.789,0,0,1-2-.392,6.67,6.67,0,0,1-1.843-.854.209.209,0,0,1-.08-.161.194.194,0,0,1,.05-.136.168.168,0,0,1,.131-.055.565.565,0,0,1,.181.075l.306.166.206.11a8.9,8.9,0,0,0,1.6.618,5.853,5.853,0,0,0,1.582.246,8.572,8.572,0,0,0,1.677-.146,8.279,8.279,0,0,0,1.577-.507q.151-.07.306-.156t.342-.191q.186-.105.286-.166ZM20.2,7.085V17.923l-7.775-2.471q-.141.06-3.767,1.281t-3.7,1.22a.182.182,0,0,1-.181-.131.077.077,0,0,0-.01-.03V6.965a.448.448,0,0,1,.04-.1.452.452,0,0,1,.2-.11q1.065-.352,1.5-.5V2.394l5.6,1.989q.02,0,1.612-.552T16.9,2.741Q18.481,2.2,18.521,2.2q.2,0,.2.211v4.2Z" transform="translate(-2.77 -1.203)" fill="#33c4e9"/>
  </g>
</svg>
