<svg xmlns="http://www.w3.org/2000/svg" xmlns:xlink="http://www.w3.org/1999/xlink" width="20" height="20" viewBox="0 0 20 20">
  <defs>
    <clipPath id="clip-Artboard_3">
      <rect width="20" height="20"/>
    </clipPath>
  </defs>
  <g id="Artboard_3" data-name="Artboard – 3" clip-path="url(#clip-Artboard_3)">
    <path id="Profile_1" data-name="Profile 1" d="M14.97,5.625A3.084,3.084,0,0,1,11.8,8.619V10a4.508,4.508,0,0,0,4.629-4.375ZM11.8,8.619A3.084,3.084,0,0,1,8.636,5.625H7.174A4.508,4.508,0,0,0,11.8,10ZM8.636,5.625A3.084,3.084,0,0,1,11.8,2.632V1.25A4.508,4.508,0,0,0,7.174,5.625ZM11.8,2.632A3.084,3.084,0,0,1,14.97,5.625h1.462A4.508,4.508,0,0,0,11.8,1.25ZM8.879,12.764h5.848V11.382H8.879Zm5.848,5.987H8.879v1.382h5.848Zm-5.848,0a3.084,3.084,0,0,1-3.167-2.994H4.25a4.508,4.508,0,0,0,4.629,4.375Zm9.015-2.994a3.084,3.084,0,0,1-3.167,2.994v1.382a4.508,4.508,0,0,0,4.629-4.375Zm-3.167-2.994a3.084,3.084,0,0,1,3.167,2.994h1.462a4.508,4.508,0,0,0-4.629-4.375ZM8.879,11.382A4.508,4.508,0,0,0,4.25,15.757H5.712a3.084,3.084,0,0,1,3.167-2.994Z" transform="translate(-1.803 -0.691)" fill="#33c4e9"/>
  </g>
</svg>
